<svg width="276" height="586" viewBox="0 0 276 586" fill="none" xmlns="http://www.w3.org/2000/svg">
<path d="M182.262 155.005L176.609 160.626" stroke="#FF5757" stroke-width="2" stroke-miterlimit="10" stroke-linecap="round" stroke-linejoin="round"/>
<path d="M182.262 160.626L176.609 155.005" stroke="#FF5757" stroke-width="2" stroke-miterlimit="10" stroke-linecap="round" stroke-linejoin="round"/>
<path d="M77.0095 481L71.3573 486.621" stroke="#FF5757" stroke-width="2" stroke-miterlimit="10" stroke-linecap="round" stroke-linejoin="round"/>
<path d="M77.0095 486.621L71.3573 481" stroke="#FF5757" stroke-width="2" stroke-miterlimit="10" stroke-linecap="round" stroke-linejoin="round"/>
<path d="M9.79639 159.618L1.80323 159.618" stroke="#FF5757" stroke-width="2" stroke-miterlimit="10" stroke-linecap="round" stroke-linejoin="round"/>
<path d="M5.80078 163.603L5.80078 155.645" stroke="#FF5757" stroke-width="2" stroke-miterlimit="10" stroke-linecap="round" stroke-linejoin="round"/>
<path d="M268 326.902L273.476 336.364H262.524L268 326.902ZM268 324L260 337.818H276L268 324ZM268.727 334.182H267.273V335.636H268.727V334.182ZM268.727 329.818H267.273V332.727H268.727V329.818Z" fill="#FF5757"/>
<path d="M187 528.08H189.717C189.717 526.513 190.66 525.304 192.516 525.304C193.926 525.304 195.219 525.992 195.219 527.646C195.219 528.92 194.449 529.505 193.233 530.396C191.847 531.376 190.75 532.521 190.828 534.38L190.843 535.309H193.533V534.597C193.533 533.157 194.095 532.738 195.612 531.617C196.865 530.689 198.172 529.658 198.172 527.494C198.172 524.464 195.546 523 192.671 523C189.941 523 186.936 524.297 187.002 528.08H187ZM190.215 539.141C190.215 540.21 191.09 541 192.294 541C193.547 541 194.41 540.21 194.41 539.141C194.41 538.034 193.545 537.256 192.292 537.256C191.09 537.256 190.215 538.034 190.215 539.141V539.141Z" fill="#FF5757"/>
<path d="M142 41.9018L147.476 51.3636H136.524L142 41.9018ZM142 39L134 52.8182H150L142 39ZM142.727 49.1818H141.273V50.6364H142.727V49.1818ZM142.727 44.8182H141.273V47.7273H142.727V44.8182Z" fill="#FF5757"/>
<path d="M12 396.902L17.4764 406.364H6.52364L12 396.902ZM12 394L4 407.818H20L12 394ZM12.7273 404.182H11.2727V405.636H12.7273V404.182ZM12.7273 399.818H11.2727V402.727H12.7273V399.818Z" fill="#FF5757"/>
<path d="M74.7074 1.74976C74.7074 2.71599 75.4951 3.49927 76.4668 3.49927C77.4384 3.49927 78.2261 2.71599 78.2261 1.74976C78.2261 0.783529 77.4384 0.000244025 76.4668 0.000243882C75.4951 0.000243739 74.7074 0.783528 74.7074 1.74976Z" fill="#9871F5"/>
<path d="M74.7074 13.9703C74.7074 14.9366 75.4951 15.7199 76.4668 15.7199C77.4384 15.7199 78.2261 14.9366 78.2261 13.9703C78.2261 13.0041 77.4384 12.2208 76.4668 12.2208C75.4951 12.2208 74.7074 13.0041 74.7074 13.9703Z" fill="#9871F5"/>
<path d="M74.7074 26.1799C74.7074 27.1462 75.4951 27.9294 76.4668 27.9294C77.4384 27.9294 78.2261 27.1462 78.2261 26.1799C78.2261 25.2137 77.4384 24.4304 76.4668 24.4304C75.4951 24.4304 74.7074 25.2137 74.7074 26.1799Z" fill="#9871F5"/>
<path d="M74.7074 38.4001C74.7074 39.3664 75.4951 40.1497 76.4668 40.1497C77.4384 40.1497 78.2261 39.3664 78.2261 38.4001C78.2261 37.4339 77.4384 36.6506 76.4668 36.6506C75.4951 36.6506 74.7074 37.4339 74.7074 38.4001Z" fill="#9871F5"/>
<path d="M74.7074 50.6107C74.7074 51.5769 75.4951 52.3602 76.4668 52.3602C77.4384 52.3602 78.2261 51.5769 78.2261 50.6107C78.2261 49.6445 77.4384 48.8612 76.4668 48.8612C75.4951 48.8612 74.7074 49.6445 74.7074 50.6107Z" fill="#9871F5"/>
<path d="M74.7074 62.8306C74.7074 63.7968 75.4951 64.5801 76.4668 64.5801C77.4384 64.5801 78.2261 63.7968 78.2261 62.8306C78.2261 61.8643 77.4384 61.0811 76.4668 61.0811C75.4951 61.0811 74.7074 61.8643 74.7074 62.8306Z" fill="#9871F5"/>
<path d="M62.4274 1.74951C62.4274 2.71574 63.2151 3.49903 64.1867 3.49903C65.1584 3.49903 65.946 2.71574 65.946 1.74951C65.946 0.783284 65.1584 -1.1578e-07 64.1867 -2.586e-07C63.2151 -4.01421e-07 62.4274 0.783284 62.4274 1.74951Z" fill="#9871F5"/>
<path d="M62.4274 13.9702C62.4274 14.9364 63.2151 15.7197 64.1867 15.7197C65.1584 15.7197 65.946 14.9364 65.946 13.9702C65.946 13.004 65.1584 12.2207 64.1867 12.2207C63.2151 12.2207 62.4274 13.004 62.4274 13.9702Z" fill="#9871F5"/>
<path d="M62.4274 26.1802C62.4274 27.1464 63.2151 27.9297 64.1867 27.9297C65.1584 27.9297 65.946 27.1464 65.946 26.1802C65.946 25.2139 65.1584 24.4307 64.1867 24.4307C63.2151 24.4307 62.4274 25.2139 62.4274 26.1802Z" fill="#9871F5"/>
<path d="M62.4274 38.4004C62.4274 39.3666 63.2151 40.1499 64.1867 40.1499C65.1584 40.1499 65.946 39.3666 65.946 38.4004C65.946 37.4342 65.1584 36.6509 64.1867 36.6509C63.2151 36.6509 62.4274 37.4342 62.4274 38.4004Z" fill="#9871F5"/>
<path d="M62.4274 50.6108C62.4274 51.5771 63.2151 52.3603 64.1867 52.3603C65.1584 52.3603 65.946 51.5771 65.946 50.6108C65.946 49.6446 65.1584 48.8613 64.1867 48.8613C63.2151 48.8613 62.4274 49.6446 62.4274 50.6108Z" fill="#9871F5"/>
<path d="M62.4274 62.8306C62.4274 63.7968 63.2151 64.5801 64.1867 64.5801C65.1584 64.5801 65.946 63.7968 65.946 62.8306C65.946 61.8643 65.1584 61.0811 64.1867 61.0811C63.2151 61.0811 62.4274 61.8643 62.4274 62.8306Z" fill="#9871F5"/>
<path d="M50.1382 1.74951C50.1382 2.71574 50.9259 3.49903 51.8975 3.49903C52.8692 3.49903 53.6569 2.71574 53.6569 1.74951C53.6569 0.783284 52.8692 -1.1578e-07 51.8975 -2.58601e-07C50.9259 -4.01421e-07 50.1382 0.783284 50.1382 1.74951Z" fill="#9871F5"/>
<path d="M50.1382 13.9702C50.1382 14.9364 50.9259 15.7197 51.8975 15.7197C52.8692 15.7197 53.6569 14.9364 53.6569 13.9702C53.6569 13.004 52.8692 12.2207 51.8975 12.2207C50.9259 12.2207 50.1382 13.004 50.1382 13.9702Z" fill="#9871F5"/>
<path d="M50.1382 26.1802C50.1382 27.1464 50.9259 27.9297 51.8975 27.9297C52.8692 27.9297 53.6569 27.1464 53.6569 26.1802C53.6569 25.2139 52.8692 24.4307 51.8975 24.4307C50.9259 24.4307 50.1382 25.2139 50.1382 26.1802Z" fill="#9871F5"/>
<path d="M50.1382 38.4004C50.1382 39.3666 50.9259 40.1499 51.8975 40.1499C52.8692 40.1499 53.6569 39.3666 53.6569 38.4004C53.6569 37.4342 52.8692 36.6509 51.8975 36.6509C50.9259 36.6509 50.1382 37.4342 50.1382 38.4004Z" fill="#9871F5"/>
<path d="M50.1382 50.6108C50.1382 51.5771 50.9259 52.3603 51.8975 52.3603C52.8692 52.3603 53.6569 51.5771 53.6569 50.6108C53.6569 49.6446 52.8692 48.8613 51.8975 48.8613C50.9259 48.8613 50.1382 49.6446 50.1382 50.6108Z" fill="#9871F5"/>
<path d="M50.1382 62.8306C50.1382 63.7968 50.9259 64.5801 51.8975 64.5801C52.8692 64.5801 53.6569 63.7968 53.6569 62.8306C53.6569 61.8643 52.8692 61.0811 51.8975 61.0811C50.9259 61.0811 50.1382 61.8643 50.1382 62.8306Z" fill="#9871F5"/>
<path d="M37.8584 1.74951C37.8584 2.71574 38.6461 3.49903 39.6178 3.49903C40.5894 3.49903 41.3771 2.71574 41.3771 1.74951C41.3771 0.783284 40.5894 -1.1578e-07 39.6178 -2.58601e-07C38.6461 -4.01422e-07 37.8584 0.783284 37.8584 1.74951Z" fill="#9871F5"/>
<path d="M37.8584 13.9702C37.8584 14.9364 38.6461 15.7197 39.6178 15.7197C40.5894 15.7197 41.3771 14.9364 41.3771 13.9702C41.3771 13.004 40.5894 12.2207 39.6178 12.2207C38.6461 12.2207 37.8584 13.004 37.8584 13.9702Z" fill="#9871F5"/>
<path d="M37.8584 26.1802C37.8584 27.1464 38.6461 27.9297 39.6178 27.9297C40.5894 27.9297 41.3771 27.1464 41.3771 26.1802C41.3771 25.2139 40.5894 24.4307 39.6178 24.4307C38.6461 24.4307 37.8584 25.2139 37.8584 26.1802Z" fill="#9871F5"/>
<path d="M37.8584 38.4004C37.8584 39.3666 38.6461 40.1499 39.6178 40.1499C40.5894 40.1499 41.3771 39.3666 41.3771 38.4004C41.3771 37.4342 40.5894 36.6509 39.6178 36.6509C38.6461 36.6509 37.8584 37.4342 37.8584 38.4004Z" fill="#9871F5"/>
<path d="M37.8584 50.6108C37.8584 51.5771 38.6461 52.3603 39.6178 52.3603C40.5894 52.3603 41.3771 51.5771 41.3771 50.6108C41.3771 49.6446 40.5894 48.8613 39.6178 48.8613C38.6461 48.8613 37.8584 49.6446 37.8584 50.6108Z" fill="#9871F5"/>
<path d="M37.8584 62.8306C37.8584 63.7968 38.6461 64.5801 39.6178 64.5801C40.5894 64.5801 41.3771 63.7968 41.3771 62.8306C41.3771 61.8643 40.5894 61.0811 39.6178 61.0811C38.6461 61.0811 37.8584 61.8643 37.8584 62.8306Z" fill="#9871F5"/>
<path d="M197.267 404.826C197.267 405.792 198.055 406.575 199.026 406.575C199.998 406.575 200.786 405.792 200.786 404.826C200.786 403.86 199.998 403.076 199.026 403.076C198.055 403.076 197.267 403.86 197.267 404.826Z" fill="#9871F5"/>
<path d="M197.268 417.037C197.268 418.004 198.055 418.787 199.027 418.787C199.998 418.787 200.786 418.004 200.786 417.037C200.786 416.071 199.998 415.288 199.027 415.288C198.055 415.288 197.268 416.071 197.268 417.037Z" fill="#9871F5"/>
<path d="M197.268 429.256C197.268 430.222 198.055 431.005 199.027 431.005C199.998 431.005 200.786 430.222 200.786 429.256C200.786 428.29 199.998 427.506 199.027 427.506C198.055 427.506 197.268 428.29 197.268 429.256Z" fill="#9871F5"/>
<path d="M184.978 404.826C184.978 405.792 185.766 406.575 186.738 406.575C187.709 406.575 188.497 405.792 188.497 404.826C188.497 403.859 187.709 403.076 186.738 403.076C185.766 403.076 184.978 403.859 184.978 404.826Z" fill="#9871F5"/>
<path d="M184.978 417.038C184.978 418.004 185.766 418.787 186.738 418.787C187.709 418.787 188.497 418.004 188.497 417.038C188.497 416.071 187.709 415.288 186.738 415.288C185.766 415.288 184.978 416.071 184.978 417.038Z" fill="#9871F5"/>
<path d="M184.978 429.256C184.978 430.222 185.766 431.005 186.738 431.005C187.709 431.005 188.497 430.222 188.497 429.256C188.497 428.29 187.709 427.506 186.738 427.506C185.766 427.506 184.978 428.29 184.978 429.256Z" fill="#9871F5"/>
<path d="M251 147.077C251 148.043 251.788 148.826 252.76 148.826C253.731 148.826 254.519 148.043 254.519 147.077C254.519 146.111 253.731 145.327 252.76 145.327C251.788 145.327 251 146.111 251 147.077Z" fill="#9871F5"/>
<path d="M251 159.287C251 160.253 251.788 161.036 252.76 161.036C253.731 161.036 254.519 160.253 254.519 159.287C254.519 158.321 253.731 157.537 252.76 157.537C251.788 157.537 251 158.321 251 159.287Z" fill="#9871F5"/>
<path d="M251 171.507C251 172.473 251.788 173.256 252.76 173.256C253.731 173.256 254.519 172.473 254.519 171.507C254.519 170.54 253.731 169.757 252.76 169.757C251.788 169.757 251 170.54 251 171.507Z" fill="#9871F5"/>
<path d="M238.711 147.077C238.711 148.043 239.499 148.826 240.47 148.826C241.442 148.826 242.23 148.043 242.23 147.077C242.23 146.11 241.442 145.327 240.47 145.327C239.499 145.327 238.711 146.11 238.711 147.077Z" fill="#9871F5"/>
<path d="M238.711 159.287C238.711 160.253 239.499 161.037 240.47 161.037C241.442 161.037 242.23 160.253 242.23 159.287C242.23 158.321 241.442 157.537 240.47 157.537C239.499 157.537 238.711 158.321 238.711 159.287Z" fill="#9871F5"/>
<path d="M238.711 171.507C238.711 172.473 239.499 173.257 240.47 173.257C241.442 173.257 242.23 172.473 242.23 171.507C242.23 170.541 241.442 169.758 240.47 169.758C239.499 169.758 238.711 170.541 238.711 171.507Z" fill="#9871F5"/>
<path d="M74.7074 584.25C74.7074 585.216 75.4951 586 76.4668 586C77.4384 586 78.2261 585.216 78.2261 584.25C78.2261 583.284 77.4384 582.5 76.4668 582.5C75.4951 582.5 74.7074 583.284 74.7074 584.25Z" fill="#9871F5"/>
<path d="M62.4182 584.251C62.4182 585.217 63.2058 586 64.1775 586C65.1491 586 65.9368 585.217 65.9368 584.251C65.9368 583.284 65.1491 582.501 64.1775 582.501C63.2058 582.501 62.4182 583.284 62.4182 584.251Z" fill="#9871F5"/>
<path d="M50.1381 584.251C50.1381 585.217 50.9258 586 51.8974 586C52.8691 586 53.6567 585.217 53.6567 584.251C53.6567 583.284 52.8691 582.501 51.8974 582.501C50.9258 582.501 50.1381 583.284 50.1381 584.251Z" fill="#9871F5"/>
<path d="M37.8489 584.251C37.8489 585.217 38.6366 586 39.6082 586C40.5799 586 41.3676 585.217 41.3676 584.251C41.3676 583.284 40.5799 582.501 39.6082 582.501C38.6366 582.501 37.8489 583.284 37.8489 584.251Z" fill="#9871F5"/>
<path d="M25.5691 584.251C25.5691 585.217 26.3568 586 27.3284 586C28.3001 586 29.0878 585.217 29.0878 584.251C29.0878 583.284 28.3001 582.501 27.3284 582.501C26.3568 582.501 25.5691 583.284 25.5691 584.251Z" fill="#9871F5"/>
<path d="M13.2798 584.251C13.2798 585.217 14.0675 586 15.0391 586C16.0108 586 16.7985 585.217 16.7985 584.251C16.7985 583.284 16.0108 582.501 15.0391 582.501C14.0675 582.501 13.2798 583.284 13.2798 584.251Z" fill="#9871F5"/>
<path d="M0.999908 584.251C0.999908 585.217 1.78759 586 2.75923 586C3.73088 586 4.51855 585.217 4.51855 584.251C4.51855 583.284 3.73088 582.501 2.75923 582.501C1.78759 582.501 0.999908 583.284 0.999908 584.251Z" fill="#9871F5"/>
<path d="M74.7074 572.031C74.7074 572.997 75.4951 573.78 76.4668 573.78C77.4384 573.78 78.2261 572.997 78.2261 572.031C78.2261 571.065 77.4384 570.281 76.4668 570.281C75.4951 570.281 74.7074 571.065 74.7074 572.031Z" fill="#9871F5"/>
<path d="M62.4182 572.031C62.4182 572.997 63.2058 573.78 64.1775 573.78C65.1491 573.78 65.9368 572.997 65.9368 572.031C65.9368 571.065 65.1491 570.281 64.1775 570.281C63.2058 570.281 62.4182 571.065 62.4182 572.031Z" fill="#9871F5"/>
<path d="M50.1381 572.031C50.1381 572.997 50.9258 573.78 51.8974 573.78C52.8691 573.78 53.6567 572.997 53.6567 572.031C53.6567 571.065 52.8691 570.281 51.8974 570.281C50.9258 570.281 50.1381 571.065 50.1381 572.031Z" fill="#9871F5"/>
<path d="M37.8489 572.031C37.8489 572.997 38.6366 573.78 39.6082 573.78C40.5799 573.78 41.3676 572.997 41.3676 572.031C41.3676 571.065 40.5799 570.281 39.6082 570.281C38.6366 570.281 37.8489 571.065 37.8489 572.031Z" fill="#9871F5"/>
<path d="M25.5691 572.031C25.5691 572.997 26.3568 573.78 27.3284 573.78C28.3001 573.78 29.0878 572.997 29.0878 572.031C29.0878 571.065 28.3001 570.281 27.3284 570.281C26.3568 570.281 25.5691 571.065 25.5691 572.031Z" fill="#9871F5"/>
<path d="M13.2798 572.031C13.2798 572.997 14.0675 573.78 15.0391 573.78C16.0108 573.78 16.7985 572.997 16.7985 572.031C16.7985 571.065 16.0108 570.281 15.0391 570.281C14.0675 570.281 13.2798 571.065 13.2798 572.031Z" fill="#9871F5"/>
<path d="M0.999908 572.031C0.999908 572.997 1.78759 573.78 2.75923 573.78C3.73088 573.78 4.51855 572.997 4.51855 572.031C4.51855 571.065 3.73088 570.281 2.75923 570.281C1.78759 570.281 0.999908 571.065 0.999908 572.031Z" fill="#9871F5"/>
<path d="M74.7074 559.82C74.7074 560.786 75.4951 561.569 76.4668 561.569C77.4384 561.569 78.2261 560.786 78.2261 559.82C78.2261 558.854 77.4384 558.07 76.4668 558.07C75.4951 558.07 74.7074 558.854 74.7074 559.82Z" fill="#9871F5"/>
<path d="M62.4182 559.82C62.4182 560.786 63.2058 561.569 64.1775 561.569C65.1491 561.569 65.9368 560.786 65.9368 559.82C65.9368 558.854 65.1491 558.07 64.1775 558.07C63.2058 558.07 62.4182 558.854 62.4182 559.82Z" fill="#9871F5"/>
<path d="M50.1381 559.82C50.1381 560.786 50.9258 561.569 51.8974 561.569C52.8691 561.569 53.6567 560.786 53.6567 559.82C53.6567 558.854 52.8691 558.07 51.8974 558.07C50.9258 558.07 50.1381 558.854 50.1381 559.82Z" fill="#9871F5"/>
<path d="M37.8489 559.82C37.8489 560.786 38.6366 561.569 39.6082 561.569C40.5799 561.569 41.3676 560.786 41.3676 559.82C41.3676 558.854 40.5799 558.07 39.6082 558.07C38.6366 558.07 37.8489 558.854 37.8489 559.82Z" fill="#9871F5"/>
<path d="M25.5691 559.82C25.5691 560.786 26.3568 561.569 27.3284 561.569C28.3001 561.569 29.0878 560.786 29.0878 559.82C29.0878 558.854 28.3001 558.07 27.3284 558.07C26.3568 558.07 25.5691 558.854 25.5691 559.82Z" fill="#9871F5"/>
<path d="M13.2798 559.82C13.2798 560.786 14.0675 561.569 15.0391 561.569C16.0108 561.569 16.7985 560.786 16.7985 559.82C16.7985 558.854 16.0108 558.07 15.0391 558.07C14.0675 558.07 13.2798 558.854 13.2798 559.82Z" fill="#9871F5"/>
<path d="M0.999908 559.82C0.999908 560.786 1.78759 561.569 2.75923 561.569C3.73088 561.569 4.51855 560.786 4.51855 559.82C4.51855 558.854 3.73088 558.07 2.75923 558.07C1.78759 558.07 0.999908 558.854 0.999908 559.82Z" fill="#9871F5"/>
<path d="M74.7065 547.601C74.7065 548.567 75.4941 549.35 76.4658 549.35C77.4374 549.35 78.2251 548.567 78.2251 547.601C78.2251 546.634 77.4374 545.851 76.4658 545.851C75.4941 545.851 74.7065 546.634 74.7065 547.601Z" fill="#9871F5"/>
<path d="M62.4182 547.6C62.4182 548.566 63.2058 549.35 64.1775 549.35C65.1491 549.35 65.9368 548.566 65.9368 547.6C65.9368 546.634 65.1491 545.851 64.1775 545.851C63.2058 545.851 62.4182 546.634 62.4182 547.6Z" fill="#9871F5"/>
<path d="M50.1381 547.6C50.1381 548.566 50.9258 549.35 51.8974 549.35C52.8691 549.35 53.6567 548.566 53.6567 547.6C53.6567 546.634 52.8691 545.851 51.8974 545.851C50.9258 545.851 50.1381 546.634 50.1381 547.6Z" fill="#9871F5"/>
<path d="M37.8489 547.6C37.8489 548.566 38.6366 549.35 39.6082 549.35C40.5799 549.35 41.3676 548.566 41.3676 547.6C41.3676 546.634 40.5799 545.851 39.6082 545.851C38.6366 545.851 37.8489 546.634 37.8489 547.6Z" fill="#9871F5"/>
<path d="M25.5691 547.6C25.5691 548.566 26.3568 549.35 27.3284 549.35C28.3001 549.35 29.0878 548.566 29.0878 547.6C29.0878 546.634 28.3001 545.851 27.3284 545.851C26.3568 545.851 25.5691 546.634 25.5691 547.6Z" fill="#9871F5"/>
<path d="M13.2799 547.6C13.2799 548.566 14.0676 549.35 15.0393 549.35C16.0109 549.35 16.7986 548.566 16.7986 547.6C16.7986 546.634 16.0109 545.851 15.0393 545.851C14.0676 545.851 13.2799 546.634 13.2799 547.6Z" fill="#9871F5"/>
<path d="M0.999908 547.6C0.999908 548.566 1.78759 549.35 2.75923 549.35C3.73088 549.35 4.51855 548.566 4.51855 547.6C4.51855 546.634 3.73088 545.851 2.75923 545.851C1.78759 545.851 0.999908 546.634 0.999908 547.6Z" fill="#9871F5"/>
</svg>
