<svg width="1120" height="566" viewBox="0 0 1120 566" fill="none" xmlns="http://www.w3.org/2000/svg">
<path d="M276.043 155.154L286.777 165.903" stroke="#FF5757" stroke-width="3" stroke-miterlimit="10" stroke-linecap="round" stroke-linejoin="round"/>
<path d="M286.777 155.154L276.043 165.903" stroke="#FF5757" stroke-width="3" stroke-miterlimit="10" stroke-linecap="round" stroke-linejoin="round"/>
<path d="M891.351 408.633L902.085 419.382" stroke="#FF5757" stroke-width="3" stroke-miterlimit="10" stroke-linecap="round" stroke-linejoin="round"/>
<path d="M902.085 408.633L891.351 419.382" stroke="#FF5757" stroke-width="3" stroke-miterlimit="10" stroke-linecap="round" stroke-linejoin="round"/>
<path d="M304.853 503.133V518.333" stroke="#FF5757" stroke-width="3" stroke-miterlimit="10" stroke-linecap="round" stroke-linejoin="round"/>
<path d="M312.462 510.732H297.264" stroke="#FF5757" stroke-width="3" stroke-miterlimit="10" stroke-linecap="round" stroke-linejoin="round"/>
<path d="M1005.2 181.184H1009.57C1009.57 178.66 1011.09 176.712 1014.08 176.712C1016.35 176.712 1018.44 177.82 1018.44 180.486C1018.44 182.537 1017.2 183.481 1015.24 184.915C1013.01 186.495 1011.24 188.34 1011.36 191.335L1011.39 192.831H1015.72V191.684C1015.72 189.364 1016.63 188.689 1019.07 186.883C1021.09 185.387 1023.2 183.726 1023.2 180.24C1023.2 175.359 1018.96 173 1014.33 173C1009.93 173 1005.09 175.09 1005.2 181.184H1005.2ZM1010.38 199.005C1010.38 200.727 1011.78 202 1013.72 202C1015.74 202 1017.13 200.727 1017.13 199.005C1017.13 197.222 1015.74 195.968 1013.72 195.968C1011.78 195.968 1010.38 197.222 1010.38 199.005V199.005Z" fill="#FF5757"/>
<path d="M91.1958 244.715L100.095 260.091H82.2967L91.1958 244.715ZM91.1958 240L78.1958 262.455H104.196L91.1958 240ZM92.3776 256.545H90.014V258.909H92.3776V256.545ZM92.3776 249.455H90.014V254.182H92.3776V249.455Z" fill="#FF5757"/>
<path d="M769.196 547.715L778.095 563.091H760.297L769.196 547.715ZM769.196 543L756.196 565.455H782.196L769.196 543ZM770.378 559.545H768.014V561.909H770.378V559.545ZM770.378 552.455H768.014V557.182H770.378V552.455Z" fill="#FF5757"/>
<path d="M633.196 4.71545L642.095 20.0909H624.297L633.196 4.71545ZM633.196 0L620.196 22.4545H646.196L633.196 0ZM634.378 16.5455H632.014V18.9091H634.378V16.5455ZM634.378 9.45455H632.014V14.1818H634.378V9.45455Z" fill="#FF5757"/>
<path d="M3.34163 379.691C5.18689 379.691 6.68277 378.194 6.68277 376.346C6.68277 374.498 5.18689 373 3.34163 373C1.49637 373 0.000488281 374.498 0.000488281 376.346C0.000488281 378.194 1.49637 379.691 3.34163 379.691Z" fill="#9871F5"/>
<path d="M26.6797 379.691C28.525 379.691 30.0208 378.194 30.0208 376.346C30.0208 374.498 28.525 373 26.6797 373C24.8344 373 23.3386 374.498 23.3386 376.346C23.3386 378.194 24.8344 379.691 26.6797 379.691Z" fill="#9871F5"/>
<path d="M50.0009 379.691C51.8462 379.691 53.3421 378.194 53.3421 376.346C53.3421 374.498 51.8462 373 50.0009 373C48.1557 373 46.6598 374.498 46.6598 376.346C46.6598 378.194 48.1557 379.691 50.0009 379.691Z" fill="#9871F5"/>
<path d="M73.3399 379.691C75.1852 379.691 76.6811 378.194 76.6811 376.346C76.6811 374.498 75.1852 373 73.3399 373C71.4947 373 69.9988 374.498 69.9988 376.346C69.9988 378.194 71.4947 379.691 73.3399 379.691Z" fill="#9871F5"/>
<path d="M96.6607 379.691C98.5059 379.691 100.002 378.194 100.002 376.346C100.002 374.498 98.5059 373 96.6607 373C94.8154 373 93.3195 374.498 93.3195 376.346C93.3195 378.194 94.8154 379.691 96.6607 379.691Z" fill="#9871F5"/>
<path d="M119.999 379.691C121.844 379.691 123.34 378.194 123.34 376.346C123.34 374.498 121.844 373 119.999 373C118.154 373 116.658 374.498 116.658 376.346C116.658 378.194 118.154 379.691 119.999 379.691Z" fill="#9871F5"/>
<path d="M3.34114 403.044C5.1864 403.044 6.68228 401.546 6.68228 399.698C6.68228 397.851 5.1864 396.353 3.34114 396.353C1.49588 396.353 0 397.851 0 399.698C0 401.546 1.49588 403.044 3.34114 403.044Z" fill="#9871F5"/>
<path d="M26.6797 403.044C28.525 403.044 30.0208 401.546 30.0208 399.698C30.0208 397.851 28.525 396.353 26.6797 396.353C24.8344 396.353 23.3386 397.851 23.3386 399.698C23.3386 401.546 24.8344 403.044 26.6797 403.044Z" fill="#9871F5"/>
<path d="M50.0014 403.044C51.8467 403.044 53.3425 401.546 53.3425 399.698C53.3425 397.851 51.8467 396.353 50.0014 396.353C48.1562 396.353 46.6603 397.851 46.6603 399.698C46.6603 401.546 48.1562 403.044 50.0014 403.044Z" fill="#9871F5"/>
<path d="M73.3399 403.044C75.1852 403.044 76.6811 401.546 76.6811 399.698C76.6811 397.851 75.1852 396.353 73.3399 396.353C71.4947 396.353 69.9988 397.851 69.9988 399.698C69.9988 401.546 71.4947 403.044 73.3399 403.044Z" fill="#9871F5"/>
<path d="M96.6607 403.044C98.5059 403.044 100.002 401.546 100.002 399.698C100.002 397.851 98.5059 396.353 96.6607 396.353C94.8154 396.353 93.3195 397.851 93.3195 399.698C93.3195 401.546 94.8154 403.044 96.6607 403.044Z" fill="#9871F5"/>
<path d="M119.999 403.044C121.844 403.044 123.34 401.546 123.34 399.698C123.34 397.851 121.844 396.353 119.999 396.353C118.154 396.353 116.658 397.851 116.658 399.698C116.658 401.546 118.154 403.044 119.999 403.044Z" fill="#9871F5"/>
<path d="M3.34114 426.415C5.1864 426.415 6.68228 424.917 6.68228 423.069C6.68228 421.221 5.1864 419.724 3.34114 419.724C1.49588 419.724 0 421.221 0 423.069C0 424.917 1.49588 426.415 3.34114 426.415Z" fill="#9871F5"/>
<path d="M26.6797 426.415C28.525 426.415 30.0208 424.917 30.0208 423.069C30.0208 421.221 28.525 419.724 26.6797 419.724C24.8344 419.724 23.3386 421.221 23.3386 423.069C23.3386 424.917 24.8344 426.415 26.6797 426.415Z" fill="#9871F5"/>
<path d="M50.0014 426.415C51.8467 426.415 53.3425 424.917 53.3425 423.069C53.3425 421.221 51.8467 419.724 50.0014 419.724C48.1562 419.724 46.6603 421.221 46.6603 423.069C46.6603 424.917 48.1562 426.415 50.0014 426.415Z" fill="#9871F5"/>
<path d="M73.3399 426.415C75.1852 426.415 76.6811 424.917 76.6811 423.069C76.6811 421.221 75.1852 419.724 73.3399 419.724C71.4947 419.724 69.9988 421.221 69.9988 423.069C69.9988 424.917 71.4947 426.415 73.3399 426.415Z" fill="#9871F5"/>
<path d="M96.6607 426.415C98.5059 426.415 100.002 424.917 100.002 423.069C100.002 421.221 98.5059 419.724 96.6607 419.724C94.8154 419.724 93.3195 421.221 93.3195 423.069C93.3195 424.917 94.8154 426.415 96.6607 426.415Z" fill="#9871F5"/>
<path d="M119.999 426.415C121.844 426.415 123.34 424.917 123.34 423.069C123.34 421.221 121.844 419.724 119.999 419.724C118.154 419.724 116.658 421.221 116.658 423.069C116.658 424.917 118.154 426.415 119.999 426.415Z" fill="#9871F5"/>
<path d="M3.34114 449.768C5.1864 449.768 6.68228 448.27 6.68228 446.422C6.68228 444.574 5.1864 443.076 3.34114 443.076C1.49588 443.076 0 444.574 0 446.422C0 448.27 1.49588 449.768 3.34114 449.768Z" fill="#9871F5"/>
<path d="M26.6797 449.768C28.525 449.768 30.0208 448.27 30.0208 446.422C30.0208 444.574 28.525 443.076 26.6797 443.076C24.8344 443.076 23.3386 444.574 23.3386 446.422C23.3386 448.27 24.8344 449.768 26.6797 449.768Z" fill="#9871F5"/>
<path d="M50.0014 449.768C51.8467 449.768 53.3425 448.27 53.3425 446.422C53.3425 444.574 51.8467 443.076 50.0014 443.076C48.1562 443.076 46.6603 444.574 46.6603 446.422C46.6603 448.27 48.1562 449.768 50.0014 449.768Z" fill="#9871F5"/>
<path d="M73.3399 449.768C75.1852 449.768 76.6811 448.27 76.6811 446.422C76.6811 444.574 75.1852 443.076 73.3399 443.076C71.4947 443.076 69.9988 444.574 69.9988 446.422C69.9988 448.27 71.4947 449.768 73.3399 449.768Z" fill="#9871F5"/>
<path d="M96.6607 449.768C98.5059 449.768 100.002 448.27 100.002 446.422C100.002 444.574 98.5059 443.076 96.6607 443.076C94.8154 443.076 93.3195 444.574 93.3195 446.422C93.3195 448.27 94.8154 449.768 96.6607 449.768Z" fill="#9871F5"/>
<path d="M119.999 449.768C121.844 449.768 123.34 448.27 123.34 446.422C123.34 444.574 121.844 443.076 119.999 443.076C118.154 443.076 116.658 444.574 116.658 446.422C116.658 448.27 118.154 449.768 119.999 449.768Z" fill="#9871F5"/>
<path d="M773.172 146.618C775.018 146.618 776.513 145.12 776.513 143.272C776.513 141.424 775.018 139.926 773.172 139.926C771.327 139.926 769.831 141.424 769.831 143.272C769.831 145.12 771.327 146.618 773.172 146.618Z" fill="#9871F5"/>
<path d="M796.493 146.618C798.338 146.618 799.834 145.12 799.834 143.272C799.834 141.424 798.338 139.926 796.493 139.926C794.648 139.926 793.152 141.424 793.152 143.272C793.152 145.12 794.648 146.618 796.493 146.618Z" fill="#9871F5"/>
<path d="M819.831 146.618C821.677 146.618 823.172 145.12 823.172 143.272C823.172 141.424 821.677 139.926 819.831 139.926C817.986 139.926 816.49 141.424 816.49 143.272C816.49 145.12 817.986 146.618 819.831 146.618Z" fill="#9871F5"/>
<path d="M773.172 169.988C775.017 169.988 776.513 168.49 776.513 166.642C776.513 164.795 775.017 163.297 773.172 163.297C771.326 163.297 769.831 164.795 769.831 166.642C769.831 168.49 771.326 169.988 773.172 169.988Z" fill="#9871F5"/>
<path d="M796.493 169.988C798.338 169.988 799.834 168.49 799.834 166.643C799.834 164.795 798.338 163.297 796.493 163.297C794.648 163.297 793.152 164.795 793.152 166.643C793.152 168.49 794.648 169.988 796.493 169.988Z" fill="#9871F5"/>
<path d="M819.831 169.988C821.677 169.988 823.172 168.49 823.172 166.643C823.172 164.795 821.677 163.297 819.831 163.297C817.986 163.297 816.49 164.795 816.49 166.643C816.49 168.49 817.986 169.988 819.831 169.988Z" fill="#9871F5"/>
<path d="M260.901 24.4332C262.746 24.4332 264.242 22.9353 264.242 21.0875C264.242 19.2397 262.746 17.7418 260.901 17.7418C259.055 17.7418 257.559 19.2397 257.559 21.0875C257.559 22.9353 259.055 24.4332 260.901 24.4332Z" fill="#9871F5"/>
<path d="M284.221 24.4332C286.066 24.4332 287.562 22.9353 287.562 21.0875C287.562 19.2397 286.066 17.7418 284.221 17.7418C282.375 17.7418 280.88 19.2397 280.88 21.0875C280.88 22.9353 282.375 24.4332 284.221 24.4332Z" fill="#9871F5"/>
<path d="M307.559 24.4332C309.404 24.4332 310.9 22.9353 310.9 21.0875C310.9 19.2397 309.404 17.7418 307.559 17.7418C305.714 17.7418 304.218 19.2397 304.218 21.0875C304.218 22.9353 305.714 24.4332 307.559 24.4332Z" fill="#9871F5"/>
<path d="M260.9 47.8039C262.745 47.8039 264.241 46.3059 264.241 44.4581C264.241 42.6103 262.745 41.1124 260.9 41.1124C259.055 41.1124 257.559 42.6103 257.559 44.4581C257.559 46.3059 259.055 47.8039 260.9 47.8039Z" fill="#9871F5"/>
<path d="M284.221 47.8039C286.066 47.8039 287.562 46.3059 287.562 44.4581C287.562 42.6103 286.066 41.1124 284.221 41.1124C282.375 41.1124 280.88 42.6103 280.88 44.4581C280.88 46.3059 282.375 47.8039 284.221 47.8039Z" fill="#9871F5"/>
<path d="M307.56 47.8039C309.405 47.8039 310.901 46.3059 310.901 44.4581C310.901 42.6103 309.405 41.1124 307.56 41.1124C305.715 41.1124 304.219 42.6103 304.219 44.4581C304.219 46.3059 305.715 47.8039 307.56 47.8039Z" fill="#9871F5"/>
<path d="M1115.85 379.691C1117.7 379.691 1119.2 378.194 1119.2 376.346C1119.2 374.498 1117.7 373 1115.85 373C1114.01 373 1112.51 374.498 1112.51 376.346C1112.51 378.194 1114.01 379.691 1115.85 379.691Z" fill="#9871F5"/>
<path d="M1115.85 403.062C1117.7 403.062 1119.2 401.564 1119.2 399.716C1119.2 397.869 1117.7 396.371 1115.85 396.371C1114.01 396.371 1112.51 397.869 1112.51 399.716C1112.51 401.564 1114.01 403.062 1115.85 403.062Z" fill="#9871F5"/>
<path d="M1115.85 426.415C1117.7 426.415 1119.2 424.917 1119.2 423.069C1119.2 421.221 1117.7 419.723 1115.85 419.723C1114.01 419.723 1112.51 421.221 1112.51 423.069C1112.51 424.917 1114.01 426.415 1115.85 426.415Z" fill="#9871F5"/>
<path d="M1115.85 449.786C1117.7 449.786 1119.2 448.288 1119.2 446.44C1119.2 444.592 1117.7 443.094 1115.85 443.094C1114.01 443.094 1112.51 444.592 1112.51 446.44C1112.51 448.288 1114.01 449.786 1115.85 449.786Z" fill="#9871F5"/>
<path d="M1115.85 473.138C1117.7 473.138 1119.2 471.641 1119.2 469.793C1119.2 467.945 1117.7 466.447 1115.85 466.447C1114.01 466.447 1112.51 467.945 1112.51 469.793C1112.51 471.641 1114.01 473.138 1115.85 473.138Z" fill="#9871F5"/>
<path d="M1115.85 496.509C1117.7 496.509 1119.2 495.011 1119.2 493.163C1119.2 491.315 1117.7 489.817 1115.85 489.817C1114.01 489.817 1112.51 491.315 1112.51 493.163C1112.51 495.011 1114.01 496.509 1115.85 496.509Z" fill="#9871F5"/>
<path d="M1115.85 519.862C1117.7 519.862 1119.2 518.364 1119.2 516.516C1119.2 514.668 1117.7 513.17 1115.85 513.17C1114.01 513.17 1112.51 514.668 1112.51 516.516C1112.51 518.364 1114.01 519.862 1115.85 519.862Z" fill="#9871F5"/>
<path d="M1092.52 379.691C1094.36 379.691 1095.86 378.194 1095.86 376.346C1095.86 374.498 1094.36 373 1092.52 373C1090.67 373 1089.18 374.498 1089.18 376.346C1089.18 378.194 1090.67 379.691 1092.52 379.691Z" fill="#9871F5"/>
<path d="M1092.52 403.062C1094.36 403.062 1095.86 401.564 1095.86 399.716C1095.86 397.869 1094.36 396.371 1092.52 396.371C1090.67 396.371 1089.18 397.869 1089.18 399.716C1089.18 401.564 1090.67 403.062 1092.52 403.062Z" fill="#9871F5"/>
<path d="M1092.52 426.415C1094.36 426.415 1095.86 424.917 1095.86 423.069C1095.86 421.221 1094.36 419.723 1092.52 419.723C1090.67 419.723 1089.18 421.221 1089.18 423.069C1089.18 424.917 1090.67 426.415 1092.52 426.415Z" fill="#9871F5"/>
<path d="M1092.52 449.786C1094.36 449.786 1095.86 448.288 1095.86 446.44C1095.86 444.592 1094.36 443.094 1092.52 443.094C1090.67 443.094 1089.18 444.592 1089.18 446.44C1089.18 448.288 1090.67 449.786 1092.52 449.786Z" fill="#9871F5"/>
<path d="M1092.52 473.138C1094.36 473.138 1095.86 471.641 1095.86 469.793C1095.86 467.945 1094.36 466.447 1092.52 466.447C1090.67 466.447 1089.18 467.945 1089.18 469.793C1089.18 471.641 1090.67 473.138 1092.52 473.138Z" fill="#9871F5"/>
<path d="M1092.52 496.509C1094.36 496.509 1095.86 495.011 1095.86 493.163C1095.86 491.315 1094.36 489.817 1092.52 489.817C1090.67 489.817 1089.18 491.315 1089.18 493.163C1089.18 495.011 1090.67 496.509 1092.52 496.509Z" fill="#9871F5"/>
<path d="M1092.52 519.862C1094.36 519.862 1095.86 518.364 1095.86 516.516C1095.86 514.668 1094.36 513.17 1092.52 513.17C1090.67 513.17 1089.18 514.668 1089.18 516.516C1089.18 518.364 1090.67 519.862 1092.52 519.862Z" fill="#9871F5"/>
<path d="M1069.19 379.691C1071.04 379.691 1072.54 378.194 1072.54 376.346C1072.54 374.498 1071.04 373 1069.19 373C1067.35 373 1065.85 374.498 1065.85 376.346C1065.85 378.194 1067.35 379.691 1069.19 379.691Z" fill="#9871F5"/>
<path d="M1069.19 403.062C1071.04 403.062 1072.54 401.564 1072.54 399.716C1072.54 397.869 1071.04 396.371 1069.19 396.371C1067.35 396.371 1065.85 397.869 1065.85 399.716C1065.85 401.564 1067.35 403.062 1069.19 403.062Z" fill="#9871F5"/>
<path d="M1069.19 426.415C1071.04 426.415 1072.54 424.917 1072.54 423.069C1072.54 421.221 1071.04 419.723 1069.19 419.723C1067.35 419.723 1065.85 421.221 1065.85 423.069C1065.85 424.917 1067.35 426.415 1069.19 426.415Z" fill="#9871F5"/>
<path d="M1069.19 449.786C1071.04 449.786 1072.54 448.288 1072.54 446.44C1072.54 444.592 1071.04 443.094 1069.19 443.094C1067.35 443.094 1065.85 444.592 1065.85 446.44C1065.85 448.288 1067.35 449.786 1069.19 449.786Z" fill="#9871F5"/>
<path d="M1069.19 473.138C1071.04 473.138 1072.54 471.641 1072.54 469.793C1072.54 467.945 1071.04 466.447 1069.19 466.447C1067.35 466.447 1065.85 467.945 1065.85 469.793C1065.85 471.641 1067.35 473.138 1069.19 473.138Z" fill="#9871F5"/>
<path d="M1069.19 496.509C1071.04 496.509 1072.54 495.011 1072.54 493.163C1072.54 491.315 1071.04 489.817 1069.19 489.817C1067.35 489.817 1065.85 491.315 1065.85 493.163C1065.85 495.011 1067.35 496.509 1069.19 496.509Z" fill="#9871F5"/>
<path d="M1069.19 519.862C1071.04 519.862 1072.54 518.364 1072.54 516.516C1072.54 514.668 1071.04 513.17 1069.19 513.17C1067.35 513.17 1065.85 514.668 1065.85 516.516C1065.85 518.364 1067.35 519.862 1069.19 519.862Z" fill="#9871F5"/>
<path d="M1045.86 379.691C1047.7 379.691 1049.2 378.194 1049.2 376.346C1049.2 374.498 1047.7 373 1045.86 373C1044.01 373 1042.52 374.498 1042.52 376.346C1042.52 378.194 1044.01 379.691 1045.86 379.691Z" fill="#9871F5"/>
<path d="M1045.86 403.062C1047.7 403.062 1049.2 401.564 1049.2 399.716C1049.2 397.869 1047.7 396.371 1045.86 396.371C1044.01 396.371 1042.51 397.869 1042.51 399.716C1042.51 401.564 1044.01 403.062 1045.86 403.062Z" fill="#9871F5"/>
<path d="M1045.86 426.415C1047.7 426.415 1049.2 424.917 1049.2 423.069C1049.2 421.221 1047.7 419.723 1045.86 419.723C1044.01 419.723 1042.51 421.221 1042.51 423.069C1042.51 424.917 1044.01 426.415 1045.86 426.415Z" fill="#9871F5"/>
<path d="M1045.86 449.786C1047.7 449.786 1049.2 448.288 1049.2 446.44C1049.2 444.592 1047.7 443.094 1045.86 443.094C1044.01 443.094 1042.51 444.592 1042.51 446.44C1042.51 448.288 1044.01 449.786 1045.86 449.786Z" fill="#9871F5"/>
<path d="M1045.86 473.138C1047.7 473.138 1049.2 471.641 1049.2 469.793C1049.2 467.945 1047.7 466.447 1045.86 466.447C1044.01 466.447 1042.51 467.945 1042.51 469.793C1042.51 471.641 1044.01 473.138 1045.86 473.138Z" fill="#9871F5"/>
<path d="M1045.86 496.509C1047.7 496.509 1049.2 495.011 1049.2 493.163C1049.2 491.315 1047.7 489.817 1045.86 489.817C1044.01 489.817 1042.51 491.315 1042.51 493.163C1042.51 495.011 1044.01 496.509 1045.86 496.509Z" fill="#9871F5"/>
<path d="M1045.86 519.862C1047.7 519.862 1049.2 518.364 1049.2 516.516C1049.2 514.668 1047.7 513.17 1045.86 513.17C1044.01 513.17 1042.51 514.668 1042.51 516.516C1042.51 518.364 1044.01 519.862 1045.86 519.862Z" fill="#9871F5"/>
</svg>
