<svg width="591" height="671" viewBox="0 0 591 671" fill="none" xmlns="http://www.w3.org/2000/svg">
<path d="M490 650.184H494.377C494.377 647.66 495.896 645.712 498.887 645.712C501.159 645.712 503.241 646.82 503.241 649.486C503.241 651.537 502.001 652.481 500.041 653.915C497.81 655.495 496.042 657.34 496.168 660.335L496.191 661.831H500.525V660.684C500.525 658.364 501.431 657.689 503.875 655.883C505.894 654.387 508 652.726 508 649.24C508 644.359 503.769 642 499.136 642C494.739 642 489.897 644.09 490.003 650.184H490ZM495.18 668.005C495.18 669.727 496.589 671 498.529 671C500.549 671 501.938 669.727 501.938 668.005C501.938 666.222 500.545 664.968 498.526 664.968C496.589 664.968 495.18 666.222 495.18 668.005V668.005Z" fill="#FF5757"/>
<path d="M59 455.715L67.8991 471.091H50.1009L59 455.715ZM59 451L46 473.455H72L59 451ZM60.1818 467.545H57.8182V469.909H60.1818V467.545ZM60.1818 460.455H57.8182V465.182H60.1818V460.455Z" fill="#FF5757"/>
<path d="M578 327.715L586.899 343.091H569.101L578 327.715ZM578 323L565 345.455H591L578 323ZM579.182 339.545H576.818V341.909H579.182V339.545ZM579.182 332.455H576.818V337.182H579.182V332.455Z" fill="#FF5757"/>
<path d="M413 122.715L421.899 138.091H404.101L413 122.715ZM413 118L400 140.455H426L413 118ZM414.182 134.545H411.818V136.909H414.182V134.545ZM414.182 127.455H411.818V132.182H414.182V127.455Z" fill="#FF5757"/>
<path d="M329.372 2L319.764 11.5541" stroke="#FF5757" stroke-width="3" stroke-miterlimit="10" stroke-linecap="round" stroke-linejoin="round"/>
<path d="M329.372 11.5541L319.764 2" stroke="#FF5757" stroke-width="3" stroke-miterlimit="10" stroke-linecap="round" stroke-linejoin="round"/>
<path d="M315.617 576.763L306.009 586.317" stroke="#FF5757" stroke-width="3" stroke-miterlimit="10" stroke-linecap="round" stroke-linejoin="round"/>
<path d="M315.617 586.317L306.009 576.763" stroke="#FF5757" stroke-width="3" stroke-miterlimit="10" stroke-linecap="round" stroke-linejoin="round"/>
<path d="M15.5866 187.274L2 187.274" stroke="#FF5757" stroke-width="3" stroke-miterlimit="10" stroke-linecap="round" stroke-linejoin="round"/>
<path d="M8.79486 194.046L8.79486 180.52" stroke="#FF5757" stroke-width="3" stroke-miterlimit="10" stroke-linecap="round" stroke-linejoin="round"/>
<path d="M157.379 23.2467C157.379 24.8891 158.718 26.2205 160.37 26.2205C162.021 26.2205 163.36 24.8891 163.36 23.2467C163.36 21.6044 162.021 20.2729 160.37 20.2729C158.718 20.2729 157.379 21.6044 157.379 23.2467Z" fill="#9871F5"/>
<path d="M157.379 44.0199C157.379 45.6623 158.718 46.9937 160.37 46.9937C162.021 46.9937 163.36 45.6623 163.36 44.0199C163.36 42.3776 162.021 41.0461 160.37 41.0461C158.718 41.0461 157.379 42.3776 157.379 44.0199Z" fill="#9871F5"/>
<path d="M157.379 64.7744C157.379 66.4168 158.718 67.7482 160.37 67.7482C162.021 67.7482 163.36 66.4168 163.36 64.7744C163.36 63.1321 162.021 61.8007 160.37 61.8007C158.718 61.8007 157.379 63.1321 157.379 64.7744Z" fill="#9871F5"/>
<path d="M157.379 85.5447C157.379 87.1871 158.718 88.5185 160.37 88.5185C162.021 88.5185 163.36 87.1871 163.36 85.5447C163.36 83.9023 162.021 82.5709 160.37 82.5709C158.718 82.5709 157.379 83.9023 157.379 85.5447Z" fill="#9871F5"/>
<path d="M157.379 106.301C157.379 107.944 158.718 109.275 160.37 109.275C162.021 109.275 163.36 107.944 163.36 106.301C163.36 104.659 162.021 103.327 160.37 103.327C158.718 103.327 157.379 104.659 157.379 106.301Z" fill="#9871F5"/>
<path d="M157.379 127.071C157.379 128.714 158.718 130.045 160.37 130.045C162.021 130.045 163.36 128.714 163.36 127.071C163.36 125.429 162.021 124.098 160.37 124.098C158.718 124.098 157.379 125.429 157.379 127.071Z" fill="#9871F5"/>
<path d="M136.506 23.247C136.506 24.8894 137.845 26.2208 139.496 26.2208C141.148 26.2208 142.487 24.8894 142.487 23.247C142.487 21.6046 141.148 20.2732 139.496 20.2732C137.845 20.2732 136.506 21.6046 136.506 23.247Z" fill="#9871F5"/>
<path d="M136.506 44.0199C136.506 45.6623 137.845 46.9937 139.496 46.9937C141.148 46.9937 142.487 45.6623 142.487 44.0199C142.487 42.3776 141.148 41.0461 139.496 41.0461C137.845 41.0461 136.506 42.3776 136.506 44.0199Z" fill="#9871F5"/>
<path d="M136.506 64.7744C136.506 66.4168 137.845 67.7482 139.496 67.7482C141.148 67.7482 142.487 66.4168 142.487 64.7744C142.487 63.1321 141.148 61.8007 139.496 61.8007C137.845 61.8007 136.506 63.1321 136.506 64.7744Z" fill="#9871F5"/>
<path d="M136.506 85.5447C136.506 87.1871 137.845 88.5185 139.496 88.5185C141.148 88.5185 142.487 87.1871 142.487 85.5447C142.487 83.9023 141.148 82.5709 139.496 82.5709C137.845 82.5709 136.506 83.9023 136.506 85.5447Z" fill="#9871F5"/>
<path d="M136.506 106.301C136.506 107.944 137.845 109.275 139.496 109.275C141.148 109.275 142.487 107.944 142.487 106.301C142.487 104.659 141.148 103.327 139.496 103.327C137.845 103.327 136.506 104.659 136.506 106.301Z" fill="#9871F5"/>
<path d="M136.506 127.071C136.506 128.714 137.845 130.045 139.496 130.045C141.148 130.045 142.487 128.714 142.487 127.071C142.487 125.429 141.148 124.098 139.496 124.098C137.845 124.098 136.506 125.429 136.506 127.071Z" fill="#9871F5"/>
<path d="M115.617 23.247C115.617 24.8894 116.956 26.2208 118.607 26.2208C120.259 26.2208 121.598 24.8894 121.598 23.247C121.598 21.6046 120.259 20.2732 118.607 20.2732C116.956 20.2732 115.617 21.6046 115.617 23.247Z" fill="#9871F5"/>
<path d="M115.617 44.0199C115.617 45.6623 116.956 46.9937 118.607 46.9937C120.259 46.9937 121.598 45.6623 121.598 44.0199C121.598 42.3776 120.259 41.0461 118.607 41.0461C116.956 41.0461 115.617 42.3776 115.617 44.0199Z" fill="#9871F5"/>
<path d="M115.617 64.7744C115.617 66.4168 116.956 67.7482 118.607 67.7482C120.259 67.7482 121.598 66.4168 121.598 64.7744C121.598 63.1321 120.259 61.8007 118.607 61.8007C116.956 61.8007 115.617 63.1321 115.617 64.7744Z" fill="#9871F5"/>
<path d="M115.617 85.5447C115.617 87.1871 116.956 88.5185 118.607 88.5185C120.259 88.5185 121.598 87.1871 121.598 85.5447C121.598 83.9023 120.259 82.5709 118.607 82.5709C116.956 82.5709 115.617 83.9023 115.617 85.5447Z" fill="#9871F5"/>
<path d="M115.617 106.301C115.617 107.944 116.956 109.275 118.607 109.275C120.259 109.275 121.598 107.944 121.598 106.301C121.598 104.659 120.259 103.327 118.607 103.327C116.956 103.327 115.617 104.659 115.617 106.301Z" fill="#9871F5"/>
<path d="M115.617 127.071C115.617 128.714 116.956 130.045 118.607 130.045C120.259 130.045 121.598 128.714 121.598 127.071C121.598 125.429 120.259 124.098 118.607 124.098C116.956 124.098 115.617 125.429 115.617 127.071Z" fill="#9871F5"/>
<path d="M94.7439 23.247C94.7439 24.8894 96.0827 26.2208 97.7343 26.2208C99.3859 26.2208 100.725 24.8894 100.725 23.247C100.725 21.6046 99.3859 20.2732 97.7343 20.2732C96.0827 20.2732 94.7439 21.6046 94.7439 23.247Z" fill="#9871F5"/>
<path d="M94.7439 44.0199C94.7439 45.6623 96.0827 46.9937 97.7343 46.9937C99.3859 46.9937 100.725 45.6623 100.725 44.0199C100.725 42.3776 99.3859 41.0461 97.7343 41.0461C96.0827 41.0461 94.7439 42.3776 94.7439 44.0199Z" fill="#9871F5"/>
<path d="M94.7439 64.7744C94.7439 66.4168 96.0827 67.7482 97.7343 67.7482C99.3859 67.7482 100.725 66.4168 100.725 64.7744C100.725 63.1321 99.3859 61.8007 97.7343 61.8007C96.0827 61.8007 94.7439 63.1321 94.7439 64.7744Z" fill="#9871F5"/>
<path d="M94.7439 85.5447C94.7439 87.1871 96.0827 88.5185 97.7343 88.5185C99.3859 88.5185 100.725 87.1871 100.725 85.5447C100.725 83.9023 99.3859 82.5709 97.7343 82.5709C96.0827 82.5709 94.7439 83.9023 94.7439 85.5447Z" fill="#9871F5"/>
<path d="M94.7439 106.301C94.7439 107.944 96.0827 109.275 97.7343 109.275C99.3859 109.275 100.725 107.944 100.725 106.301C100.725 104.659 99.3859 103.327 97.7343 103.327C96.0827 103.327 94.7439 104.659 94.7439 106.301Z" fill="#9871F5"/>
<path d="M94.7439 127.071C94.7439 128.714 96.0827 130.045 97.7343 130.045C99.3859 130.045 100.725 128.714 100.725 127.071C100.725 125.429 99.3859 124.098 97.7343 124.098C96.0827 124.098 94.7439 125.429 94.7439 127.071Z" fill="#9871F5"/>
<path d="M497.944 477.706C497.944 479.348 499.283 480.679 500.934 480.679C502.586 480.679 503.925 479.348 503.925 477.706C503.925 476.063 502.586 474.732 500.934 474.732C499.283 474.732 497.944 476.063 497.944 477.706Z" fill="#9871F5"/>
<path d="M497.945 498.46C497.945 500.103 499.284 501.434 500.935 501.434C502.587 501.434 503.926 500.103 503.926 498.46C503.926 496.818 502.587 495.487 500.935 495.487C499.284 495.487 497.945 496.818 497.945 498.46Z" fill="#9871F5"/>
<path d="M497.945 519.23C497.945 520.872 499.284 522.204 500.935 522.204C502.587 522.204 503.926 520.872 503.926 519.23C503.926 517.588 502.587 516.256 500.935 516.256C499.284 516.256 497.945 517.588 497.945 519.23Z" fill="#9871F5"/>
<path d="M477.056 477.704C477.056 479.346 478.395 480.677 480.046 480.677C481.698 480.677 483.037 479.346 483.037 477.704C483.037 476.061 481.698 474.73 480.046 474.73C478.395 474.73 477.056 476.061 477.056 477.704Z" fill="#9871F5"/>
<path d="M477.056 498.46C477.056 500.103 478.395 501.434 480.046 501.434C481.698 501.434 483.037 500.103 483.037 498.46C483.037 496.818 481.698 495.487 480.046 495.487C478.395 495.487 477.056 496.818 477.056 498.46Z" fill="#9871F5"/>
<path d="M477.056 519.229C477.056 520.871 478.395 522.202 480.046 522.202C481.698 522.202 483.037 520.871 483.037 519.229C483.037 517.586 481.698 516.255 480.046 516.255C478.395 516.255 477.056 517.586 477.056 519.229Z" fill="#9871F5"/>
<path d="M571.653 111.974C571.653 113.617 572.992 114.948 574.644 114.948C576.295 114.948 577.634 113.617 577.634 111.974C577.634 110.332 576.295 109 574.644 109C572.992 109 571.653 110.332 571.653 111.974Z" fill="#9871F5"/>
<path d="M571.654 132.728C571.654 134.37 572.993 135.702 574.644 135.702C576.296 135.702 577.635 134.37 577.635 132.728C577.635 131.086 576.296 129.754 574.644 129.754C572.993 129.754 571.654 131.086 571.654 132.728Z" fill="#9871F5"/>
<path d="M571.654 153.5C571.654 155.143 572.993 156.474 574.644 156.474C576.296 156.474 577.635 155.143 577.635 153.5C577.635 151.858 576.296 150.527 574.644 150.527C572.993 150.527 571.654 151.858 571.654 153.5Z" fill="#9871F5"/>
<path d="M550.764 111.974C550.764 113.616 552.103 114.948 553.755 114.948C555.406 114.948 556.745 113.616 556.745 111.974C556.745 110.331 555.406 109 553.755 109C552.103 109 550.764 110.331 550.764 111.974Z" fill="#9871F5"/>
<path d="M550.764 132.73C550.764 134.372 552.103 135.704 553.755 135.704C555.406 135.704 556.745 134.372 556.745 132.73C556.745 131.088 555.406 129.756 553.755 129.756C552.103 129.756 550.764 131.088 550.764 132.73Z" fill="#9871F5"/>
<path d="M550.764 153.5C550.764 155.143 552.103 156.474 553.755 156.474C555.406 156.474 556.745 155.143 556.745 153.5C556.745 151.858 555.406 150.526 553.755 150.526C552.103 150.526 550.764 151.858 550.764 153.5Z" fill="#9871F5"/>
<path d="M164.866 662.983C164.866 664.626 166.205 665.957 167.857 665.957C169.508 665.957 170.847 664.626 170.847 662.983C170.847 661.341 169.508 660.009 167.857 660.009C166.205 660.009 164.866 661.341 164.866 662.983Z" fill="#9871F5"/>
<path d="M143.977 662.983C143.977 664.626 145.316 665.957 146.968 665.957C148.619 665.957 149.958 664.626 149.958 662.983C149.958 661.341 148.619 660.009 146.968 660.009C145.316 660.009 143.977 661.341 143.977 662.983Z" fill="#9871F5"/>
<path d="M123.104 662.983C123.104 664.626 124.443 665.957 126.094 665.957C127.746 665.957 129.085 664.626 129.085 662.983C129.085 661.341 127.746 660.009 126.094 660.009C124.443 660.009 123.104 661.341 123.104 662.983Z" fill="#9871F5"/>
<path d="M102.215 662.983C102.215 664.626 103.554 665.957 105.205 665.957C106.857 665.957 108.196 664.626 108.196 662.983C108.196 661.341 106.857 660.009 105.205 660.009C103.554 660.009 102.215 661.341 102.215 662.983Z" fill="#9871F5"/>
<path d="M81.3418 662.983C81.3418 664.626 82.6807 665.957 84.3323 665.957C85.9839 665.957 87.3228 664.626 87.3228 662.983C87.3228 661.341 85.9839 660.009 84.3323 660.009C82.6807 660.009 81.3418 661.341 81.3418 662.983Z" fill="#9871F5"/>
<path d="M60.4527 662.983C60.4527 664.626 61.7916 665.957 63.4432 665.957C65.0948 665.957 66.4337 664.626 66.4337 662.983C66.4337 661.341 65.0948 660.009 63.4432 660.009C61.7916 660.009 60.4527 661.341 60.4527 662.983Z" fill="#9871F5"/>
<path d="M39.5794 662.983C39.5794 664.626 40.9183 665.957 42.5699 665.957C44.2215 665.957 45.5604 664.626 45.5604 662.983C45.5604 661.341 44.2215 660.009 42.5699 660.009C40.9183 660.009 39.5794 661.341 39.5794 662.983Z" fill="#9871F5"/>
<path d="M164.866 642.212C164.866 643.854 166.205 645.186 167.857 645.186C169.508 645.186 170.847 643.854 170.847 642.212C170.847 640.569 169.508 639.238 167.857 639.238C166.205 639.238 164.866 640.569 164.866 642.212Z" fill="#9871F5"/>
<path d="M143.977 642.212C143.977 643.854 145.316 645.186 146.968 645.186C148.619 645.186 149.958 643.854 149.958 642.212C149.958 640.569 148.619 639.238 146.968 639.238C145.316 639.238 143.977 640.569 143.977 642.212Z" fill="#9871F5"/>
<path d="M123.104 642.212C123.104 643.854 124.443 645.186 126.094 645.186C127.746 645.186 129.085 643.854 129.085 642.212C129.085 640.569 127.746 639.238 126.094 639.238C124.443 639.238 123.104 640.569 123.104 642.212Z" fill="#9871F5"/>
<path d="M102.215 642.212C102.215 643.854 103.554 645.186 105.205 645.186C106.857 645.186 108.196 643.854 108.196 642.212C108.196 640.569 106.857 639.238 105.205 639.238C103.554 639.238 102.215 640.569 102.215 642.212Z" fill="#9871F5"/>
<path d="M81.3418 642.212C81.3418 643.854 82.6806 645.186 84.3322 645.186C85.9838 645.186 87.3227 643.854 87.3227 642.212C87.3227 640.569 85.9838 639.238 84.3322 639.238C82.6806 639.238 81.3418 640.569 81.3418 642.212Z" fill="#9871F5"/>
<path d="M60.4527 642.212C60.4527 643.854 61.7916 645.186 63.4432 645.186C65.0948 645.186 66.4337 643.854 66.4337 642.212C66.4337 640.569 65.0948 639.238 63.4432 639.238C61.7916 639.238 60.4527 640.569 60.4527 642.212Z" fill="#9871F5"/>
<path d="M39.5794 642.212C39.5794 643.854 40.9183 645.186 42.5699 645.186C44.2215 645.186 45.5604 643.854 45.5604 642.212C45.5604 640.569 44.2215 639.238 42.5699 639.238C40.9183 639.238 39.5794 640.569 39.5794 642.212Z" fill="#9871F5"/>
<path d="M164.866 621.456C164.866 623.098 166.205 624.43 167.857 624.43C169.508 624.43 170.847 623.098 170.847 621.456C170.847 619.814 169.508 618.482 167.857 618.482C166.205 618.482 164.866 619.814 164.866 621.456Z" fill="#9871F5"/>
<path d="M143.977 621.456C143.977 623.098 145.316 624.43 146.968 624.43C148.619 624.43 149.958 623.098 149.958 621.456C149.958 619.814 148.619 618.482 146.968 618.482C145.316 618.482 143.977 619.814 143.977 621.456Z" fill="#9871F5"/>
<path d="M123.104 621.456C123.104 623.098 124.443 624.43 126.094 624.43C127.746 624.43 129.085 623.098 129.085 621.456C129.085 619.814 127.746 618.482 126.094 618.482C124.443 618.482 123.104 619.814 123.104 621.456Z" fill="#9871F5"/>
<path d="M102.215 621.456C102.215 623.098 103.554 624.43 105.205 624.43C106.857 624.43 108.196 623.098 108.196 621.456C108.196 619.814 106.857 618.482 105.205 618.482C103.554 618.482 102.215 619.814 102.215 621.456Z" fill="#9871F5"/>
<path d="M81.3418 621.456C81.3418 623.098 82.6806 624.43 84.3322 624.43C85.9838 624.43 87.3227 623.098 87.3227 621.456C87.3227 619.814 85.9838 618.482 84.3322 618.482C82.6806 618.482 81.3418 619.814 81.3418 621.456Z" fill="#9871F5"/>
<path d="M60.4527 621.456C60.4527 623.098 61.7916 624.43 63.4432 624.43C65.0948 624.43 66.4337 623.098 66.4337 621.456C66.4337 619.814 65.0948 618.482 63.4432 618.482C61.7916 618.482 60.4527 619.814 60.4527 621.456Z" fill="#9871F5"/>
<path d="M39.5794 621.456C39.5794 623.098 40.9183 624.43 42.5699 624.43C44.2215 624.43 45.5604 623.098 45.5604 621.456C45.5604 619.814 44.2215 618.482 42.5699 618.482C40.9183 618.482 39.5794 619.814 39.5794 621.456Z" fill="#9871F5"/>
<path d="M164.864 600.686C164.864 602.328 166.203 603.659 167.855 603.659C169.506 603.659 170.845 602.328 170.845 600.686C170.845 599.043 169.506 597.712 167.855 597.712C166.203 597.712 164.864 599.043 164.864 600.686Z" fill="#9871F5"/>
<path d="M143.977 600.685C143.977 602.328 145.316 603.659 146.968 603.659C148.619 603.659 149.958 602.328 149.958 600.685C149.958 599.043 148.619 597.711 146.968 597.711C145.316 597.711 143.977 599.043 143.977 600.685Z" fill="#9871F5"/>
<path d="M123.104 600.685C123.104 602.328 124.443 603.659 126.094 603.659C127.746 603.659 129.085 602.328 129.085 600.685C129.085 599.043 127.746 597.711 126.094 597.711C124.443 597.711 123.104 599.043 123.104 600.685Z" fill="#9871F5"/>
<path d="M102.215 600.685C102.215 602.328 103.554 603.659 105.205 603.659C106.857 603.659 108.196 602.328 108.196 600.685C108.196 599.043 106.857 597.711 105.205 597.711C103.554 597.711 102.215 599.043 102.215 600.685Z" fill="#9871F5"/>
<path d="M81.3418 600.685C81.3418 602.328 82.6806 603.659 84.3322 603.659C85.9838 603.659 87.3227 602.328 87.3227 600.685C87.3227 599.043 85.9838 597.711 84.3322 597.711C82.6806 597.711 81.3418 599.043 81.3418 600.685Z" fill="#9871F5"/>
<path d="M60.4527 600.685C60.4527 602.328 61.7916 603.659 63.4432 603.659C65.0948 603.659 66.4337 602.328 66.4337 600.685C66.4337 599.043 65.0948 597.711 63.4432 597.711C61.7916 597.711 60.4527 599.043 60.4527 600.685Z" fill="#9871F5"/>
<path d="M39.5794 600.685C39.5794 602.328 40.9183 603.659 42.5698 603.659C44.2214 603.659 45.5603 602.328 45.5603 600.685C45.5603 599.043 44.2214 597.711 42.5698 597.711C40.9183 597.711 39.5794 599.043 39.5794 600.685Z" fill="#9871F5"/>
</svg>
